<?xml version="1.0" encoding="UTF-8" standalone="no"?><diagram id="SNbYQcsz_Utg5FWgZMJS" name="Page-1"><mxGraphModel arrows="1" connect="1" dx="332" dy="241" fold="1" grid="1" gridSize="10" guides="1" math="0" page="1" pageHeight="1100" pageScale="1" pageWidth="850" shadow="0" tooltips="1"><root><mxCell id="0"/><mxCell id="1" parent="0"/><mxCell id="2" parent="1" style="swimlane;fontStyle=0;align=center;verticalAlign=top;childLayout=stackLayout;horizontal=1;startSize=30;horizontalStack=0;resizeParent=1;resizeParentMax=0;resizeLast=0;collapsible=0;marginBottom=0;html=1;" value="Book" vertex="1"><mxGeometry as="geometry" height="320" width="225" x="70" y="80"/></mxCell><mxCell id="3" parent="2" style="text;html=1;strokeColor=none;fillColor=none;align=left;verticalAlign=middle;spacingLeft=4;spacingRight=4;overflow=hidden;rotatable=0;points=[[0,0.5],[1,0.5]];portConstraint=eastwest;" value="- isbn : String" vertex="1"><mxGeometry as="geometry" height="26" width="225" y="26"/></mxCell><mxCell id="4" parent="2" style="text;html=1;strokeColor=none;fillColor=none;align=left;verticalAlign=middle;spacingLeft=4;spacingRight=4;overflow=hidden;rotatable=0;points=[[0,0.5],[1,0.5]];portConstraint=eastwest;" value="- author : String" vertex="1"><mxGeometry as="geometry" height="26" width="225" y="52"/></mxCell><mxCell id="5" parent="2" style="text;html=1;strokeColor=none;fillColor=none;align=left;verticalAlign=middle;spacingLeft=4;spacingRight=4;overflow=hidden;rotatable=0;points=[[0,0.5],[1,0.5]];portConstraint=eastwest;" value="- publisher : String" vertex="1"><mxGeometry as="geometry" height="26" width="225" y="78"/></mxCell><mxCell id="6" parent="2" style="text;html=1;strokeColor=none;fillColor=none;align=left;verticalAlign=middle;spacingLeft=4;spacingRight=4;overflow=hidden;rotatable=0;points=[[0,0.5],[1,0.5]];portConstraint=eastwest;" value="- year : Year" vertex="1"><mxGeometry as="geometry" height="26" width="225" y="104"/></mxCell><mxCell id="7" parent="2" style="line;strokeWidth=1;fillColor=none;align=left;verticalAlign=middle;spacingTop=-1;spacingLeft=3;spacingRight=3;rotatable=0;labelPosition=right;points=[];portConstraint=eastwest;" vertex="1"><mxGeometry as="geometry" height="8" width="225" y="130"/></mxCell><mxCell id="8" parent="2" style="text;html=1;strokeColor=none;fillColor=none;align=left;verticalAlign=middle;spacingLeft=4;spacingRight=4;overflow=hidden;rotatable=0;points=[[0,0.5],[1,0.5]];portConstraint=eastwest;" value="+ Book(int, String, String, String, String, Language, Year, int, Genre, boolean)" vertex="1"><mxGeometry as="geometry" height="26" width="225" y="138"/></mxCell><mxCell id="9" parent="2" style="text;html=1;strokeColor=none;fillColor=none;align=left;verticalAlign=middle;spacingLeft=4;spacingRight=4;overflow=hidden;rotatable=0;points=[[0,0.5],[1,0.5]];portConstraint=eastwest;" value="+ Book(int, String, String, String, String, Language, Year, int, Genre, boolean, LocalDateTime, LocalDateTime)" vertex="1"><mxGeometry as="geometry" height="26" width="225" y="164"/></mxCell><mxCell id="10" parent="2" style="text;html=1;strokeColor=none;fillColor=none;align=left;verticalAlign=middle;spacingLeft=4;spacingRight=4;overflow=hidden;rotatable=0;points=[[0,0.5],[1,0.5]];portConstraint=eastwest;" value="+ getIsbn(): String" vertex="1"><mxGeometry as="geometry" height="26" width="225" y="190"/></mxCell><mxCell id="11" parent="2" style="text;html=1;strokeColor=none;fillColor=none;align=left;verticalAlign=middle;spacingLeft=4;spacingRight=4;overflow=hidden;rotatable=0;points=[[0,0.5],[1,0.5]];portConstraint=eastwest;" value="+ getAuthor(): String" vertex="1"><mxGeometry as="geometry" height="26" width="225" y="216"/></mxCell><mxCell id="12" parent="2" style="text;html=1;strokeColor=none;fillColor=none;align=left;verticalAlign=middle;spacingLeft=4;spacingRight=4;overflow=hidden;rotatable=0;points=[[0,0.5],[1,0.5]];portConstraint=eastwest;" value="+ getPublisher(): String" vertex="1"><mxGeometry as="geometry" height="26" width="225" y="242"/></mxCell><mxCell id="13" parent="2" style="text;html=1;strokeColor=none;fillColor=none;align=left;verticalAlign=middle;spacingLeft=4;spacingRight=4;overflow=hidden;rotatable=0;points=[[0,0.5],[1,0.5]];portConstraint=eastwest;" value="+ getYear(): Year" vertex="1"><mxGeometry as="geometry" height="26" width="225" y="268"/></mxCell><mxCell id="14" parent="2" style="text;html=1;strokeColor=none;fillColor=none;align=left;verticalAlign=middle;spacingLeft=4;spacingRight=4;overflow=hidden;rotatable=0;points=[[0,0.5],[1,0.5]];portConstraint=eastwest;" value="+ equals(Object): boolean" vertex="1"><mxGeometry as="geometry" height="26" width="225" y="294"/></mxCell><mxCell id="15" parent="1" style="swimlane;fontStyle=0;align=center;verticalAlign=top;childLayout=stackLayout;horizontal=1;startSize=30;horizontalStack=0;resizeParent=1;resizeParentMax=0;resizeLast=0;collapsible=0;marginBottom=0;html=1;" value="BookBorrow" vertex="1"><mxGeometry as="geometry" height="138" width="225" x="378" y="80"/></mxCell><mxCell id="16" parent="15" style="text;html=1;strokeColor=none;fillColor=none;align=left;verticalAlign=middle;spacingLeft=4;spacingRight=4;overflow=hidden;rotatable=0;points=[[0,0.5],[1,0.5]];portConstraint=eastwest;" value="- book : Book" vertex="1"><mxGeometry as="geometry" height="26" width="225" y="26"/></mxCell><mxCell id="17" parent="15" style="line;strokeWidth=1;fillColor=none;align=left;verticalAlign=middle;spacingTop=-1;spacingLeft=3;spacingRight=3;rotatable=0;labelPosition=right;points=[];portConstraint=eastwest;" vertex="1"><mxGeometry as="geometry" height="8" width="225" y="52"/></mxCell><mxCell id="18" parent="15" style="text;html=1;strokeColor=none;fillColor=none;align=left;verticalAlign=middle;spacingLeft=4;spacingRight=4;overflow=hidden;rotatable=0;points=[[0,0.5],[1,0.5]];portConstraint=eastwest;" value="+ BookBorrow(int, LocalDateTime, Status, Book, Staff)" vertex="1"><mxGeometry as="geometry" height="26" width="225" y="60"/></mxCell><mxCell id="19" parent="15" style="text;html=1;strokeColor=none;fillColor=none;align=left;verticalAlign=middle;spacingLeft=4;spacingRight=4;overflow=hidden;rotatable=0;points=[[0,0.5],[1,0.5]];portConstraint=eastwest;" value="+ BookBorrow(int, LocalDateTime, Status, Book, Staff, LocalDateTime, LocalDateTime)" vertex="1"><mxGeometry as="geometry" height="26" width="225" y="86"/></mxCell><mxCell id="20" parent="15" style="text;html=1;strokeColor=none;fillColor=none;align=left;verticalAlign=middle;spacingLeft=4;spacingRight=4;overflow=hidden;rotatable=0;points=[[0,0.5],[1,0.5]];portConstraint=eastwest;" value="+ getBook(): Book" vertex="1"><mxGeometry as="geometry" height="26" width="225" y="112"/></mxCell><mxCell id="21" parent="1" style="swimlane;fontStyle=0;align=center;verticalAlign=top;childLayout=stackLayout;horizontal=1;startSize=30;horizontalStack=0;resizeParent=1;resizeParentMax=0;resizeLast=0;collapsible=0;marginBottom=0;html=1;" value="BookFine" vertex="1"><mxGeometry as="geometry" height="138" width="225" x="686" y="80"/></mxCell><mxCell id="22" parent="21" style="text;html=1;strokeColor=none;fillColor=none;align=left;verticalAlign=middle;spacingLeft=4;spacingRight=4;overflow=hidden;rotatable=0;points=[[0,0.5],[1,0.5]];portConstraint=eastwest;" value="- userBookBorrowId : int" vertex="1"><mxGeometry as="geometry" height="26" width="225" y="26"/></mxCell><mxCell id="23" parent="21" style="line;strokeWidth=1;fillColor=none;align=left;verticalAlign=middle;spacingTop=-1;spacingLeft=3;spacingRight=3;rotatable=0;labelPosition=right;points=[];portConstraint=eastwest;" vertex="1"><mxGeometry as="geometry" height="8" width="225" y="52"/></mxCell><mxCell id="24" parent="21" style="text;html=1;strokeColor=none;fillColor=none;align=left;verticalAlign=middle;spacingLeft=4;spacingRight=4;overflow=hidden;rotatable=0;points=[[0,0.5],[1,0.5]];portConstraint=eastwest;" value="+ BookFine(int, BigDecimal, FineStatus, String, int)" vertex="1"><mxGeometry as="geometry" height="26" width="225" y="60"/></mxCell><mxCell id="25" parent="21" style="text;html=1;strokeColor=none;fillColor=none;align=left;verticalAlign=middle;spacingLeft=4;spacingRight=4;overflow=hidden;rotatable=0;points=[[0,0.5],[1,0.5]];portConstraint=eastwest;" value="+ BookFine(int, BigDecimal, FineStatus, String, int, LocalDateTime)" vertex="1"><mxGeometry as="geometry" height="26" width="225" y="86"/></mxCell><mxCell id="26" parent="21" style="text;html=1;strokeColor=none;fillColor=none;align=left;verticalAlign=middle;spacingLeft=4;spacingRight=4;overflow=hidden;rotatable=0;points=[[0,0.5],[1,0.5]];portConstraint=eastwest;" value="+ getUserBookBorrowId(): int" vertex="1"><mxGeometry as="geometry" height="26" width="225" y="112"/></mxCell><mxCell id="27" parent="1" style="swimlane;fontStyle=0;align=center;verticalAlign=top;childLayout=stackLayout;horizontal=1;startSize=30;horizontalStack=0;resizeParent=1;resizeParentMax=0;resizeLast=0;collapsible=0;marginBottom=0;html=1;" value="Borrow" vertex="1"><mxGeometry as="geometry" height="346" width="225" x="70" y="636"/></mxCell><mxCell id="28" parent="27" style="text;html=1;strokeColor=none;fillColor=none;align=left;verticalAlign=middle;spacingLeft=4;spacingRight=4;overflow=hidden;rotatable=0;points=[[0,0.5],[1,0.5]];portConstraint=eastwest;" value="- date : LocalDateTime" vertex="1"><mxGeometry as="geometry" height="26" width="225" y="26"/></mxCell><mxCell id="29" parent="27" style="text;html=1;strokeColor=none;fillColor=none;align=left;verticalAlign=middle;spacingLeft=4;spacingRight=4;overflow=hidden;rotatable=0;points=[[0,0.5],[1,0.5]];portConstraint=eastwest;" value="- status : Status" vertex="1"><mxGeometry as="geometry" height="26" width="225" y="52"/></mxCell><mxCell id="30" parent="27" style="text;html=1;strokeColor=none;fillColor=none;align=left;verticalAlign=middle;spacingLeft=4;spacingRight=4;overflow=hidden;rotatable=0;points=[[0,0.5],[1,0.5]];portConstraint=eastwest;" value="- staff : Staff" vertex="1"><mxGeometry as="geometry" height="26" width="225" y="78"/></mxCell><mxCell id="31" parent="27" style="text;html=1;strokeColor=none;fillColor=none;align=left;verticalAlign=middle;spacingLeft=4;spacingRight=4;overflow=hidden;rotatable=0;points=[[0,0.5],[1,0.5]];portConstraint=eastwest;" value="- createdAt : LocalDateTime" vertex="1"><mxGeometry as="geometry" height="26" width="225" y="104"/></mxCell><mxCell id="32" parent="27" style="text;html=1;strokeColor=none;fillColor=none;align=left;verticalAlign=middle;spacingLeft=4;spacingRight=4;overflow=hidden;rotatable=0;points=[[0,0.5],[1,0.5]];portConstraint=eastwest;" value="- updatedAt : LocalDateTime" vertex="1"><mxGeometry as="geometry" height="26" width="225" y="130"/></mxCell><mxCell id="33" parent="27" style="line;strokeWidth=1;fillColor=none;align=left;verticalAlign=middle;spacingTop=-1;spacingLeft=3;spacingRight=3;rotatable=0;labelPosition=right;points=[];portConstraint=eastwest;" vertex="1"><mxGeometry as="geometry" height="8" width="225" y="156"/></mxCell><mxCell id="34" parent="27" style="text;html=1;strokeColor=none;fillColor=none;align=left;verticalAlign=middle;spacingLeft=4;spacingRight=4;overflow=hidden;rotatable=0;points=[[0,0.5],[1,0.5]];portConstraint=eastwest;" value="+ Borrow(int, LocalDateTime, Status, Staff)" vertex="1"><mxGeometry as="geometry" height="26" width="225" y="164"/></mxCell><mxCell id="35" parent="27" style="text;html=1;strokeColor=none;fillColor=none;align=left;verticalAlign=middle;spacingLeft=4;spacingRight=4;overflow=hidden;rotatable=0;points=[[0,0.5],[1,0.5]];portConstraint=eastwest;" value="+ Borrow(int, LocalDateTime, Status, Staff, LocalDateTime, LocalDateTime)" vertex="1"><mxGeometry as="geometry" height="26" width="225" y="190"/></mxCell><mxCell id="36" parent="27" style="text;html=1;strokeColor=none;fillColor=none;align=left;verticalAlign=middle;spacingLeft=4;spacingRight=4;overflow=hidden;rotatable=0;points=[[0,0.5],[1,0.5]];portConstraint=eastwest;" value="+ getDate(): LocalDateTime" vertex="1"><mxGeometry as="geometry" height="26" width="225" y="216"/></mxCell><mxCell id="37" parent="27" style="text;html=1;strokeColor=none;fillColor=none;align=left;verticalAlign=middle;spacingLeft=4;spacingRight=4;overflow=hidden;rotatable=0;points=[[0,0.5],[1,0.5]];portConstraint=eastwest;" value="+ getStatus(): Status" vertex="1"><mxGeometry as="geometry" height="26" width="225" y="242"/></mxCell><mxCell id="38" parent="27" style="text;html=1;strokeColor=none;fillColor=none;align=left;verticalAlign=middle;spacingLeft=4;spacingRight=4;overflow=hidden;rotatable=0;points=[[0,0.5],[1,0.5]];portConstraint=eastwest;" value="+ getStaff(): Staff" vertex="1"><mxGeometry as="geometry" height="26" width="225" y="268"/></mxCell><mxCell id="39" parent="27" style="text;html=1;strokeColor=none;fillColor=none;align=left;verticalAlign=middle;spacingLeft=4;spacingRight=4;overflow=hidden;rotatable=0;points=[[0,0.5],[1,0.5]];portConstraint=eastwest;" value="+ getCreatedAt(): LocalDateTime" vertex="1"><mxGeometry as="geometry" height="26" width="225" y="294"/></mxCell><mxCell id="40" parent="27" style="text;html=1;strokeColor=none;fillColor=none;align=left;verticalAlign=middle;spacingLeft=4;spacingRight=4;overflow=hidden;rotatable=0;points=[[0,0.5],[1,0.5]];portConstraint=eastwest;" value="+ getUpdatedAt(): LocalDateTime" vertex="1"><mxGeometry as="geometry" height="26" width="225" y="320"/></mxCell><mxCell id="41" parent="1" style="swimlane;fontStyle=0;align=center;verticalAlign=top;childLayout=stackLayout;horizontal=1;startSize=30;horizontalStack=0;resizeParent=1;resizeParentMax=0;resizeLast=0;collapsible=0;marginBottom=0;html=1;" value="Credential" vertex="1"><mxGeometry as="geometry" height="216" width="225" x="378" y="636"/></mxCell><mxCell id="42" parent="41" style="text;html=1;strokeColor=none;fillColor=none;align=left;verticalAlign=middle;spacingLeft=4;spacingRight=4;overflow=hidden;rotatable=0;points=[[0,0.5],[1,0.5]];portConstraint=eastwest;" value="- username : String" vertex="1"><mxGeometry as="geometry" height="26" width="225" y="26"/></mxCell><mxCell id="43" parent="41" style="text;html=1;strokeColor=none;fillColor=none;align=left;verticalAlign=middle;spacingLeft=4;spacingRight=4;overflow=hidden;rotatable=0;points=[[0,0.5],[1,0.5]];portConstraint=eastwest;" value="- password : String" vertex="1"><mxGeometry as="geometry" height="26" width="225" y="52"/></mxCell><mxCell id="44" parent="41" style="line;strokeWidth=1;fillColor=none;align=left;verticalAlign=middle;spacingTop=-1;spacingLeft=3;spacingRight=3;rotatable=0;labelPosition=right;points=[];portConstraint=eastwest;" vertex="1"><mxGeometry as="geometry" height="8" width="225" y="78"/></mxCell><mxCell id="45" parent="41" style="text;html=1;strokeColor=none;fillColor=none;align=left;verticalAlign=middle;spacingLeft=4;spacingRight=4;overflow=hidden;rotatable=0;points=[[0,0.5],[1,0.5]];portConstraint=eastwest;" value="+ getUsername(): String" vertex="1"><mxGeometry as="geometry" height="26" width="225" y="86"/></mxCell><mxCell id="46" parent="41" style="text;html=1;strokeColor=none;fillColor=none;align=left;verticalAlign=middle;spacingLeft=4;spacingRight=4;overflow=hidden;rotatable=0;points=[[0,0.5],[1,0.5]];portConstraint=eastwest;" value="+ Credential(String, String)" vertex="1"><mxGeometry as="geometry" height="26" width="225" y="112"/></mxCell><mxCell id="47" parent="41" style="text;html=1;strokeColor=none;fillColor=none;align=left;verticalAlign=middle;spacingLeft=4;spacingRight=4;overflow=hidden;rotatable=0;points=[[0,0.5],[1,0.5]];portConstraint=eastwest;" value="+ setUsername(String): void" vertex="1"><mxGeometry as="geometry" height="26" width="225" y="138"/></mxCell><mxCell id="48" parent="41" style="text;html=1;strokeColor=none;fillColor=none;align=left;verticalAlign=middle;spacingLeft=4;spacingRight=4;overflow=hidden;rotatable=0;points=[[0,0.5],[1,0.5]];portConstraint=eastwest;" value="+ getPassword(): String" vertex="1"><mxGeometry as="geometry" height="26" width="225" y="164"/></mxCell><mxCell id="49" parent="41" style="text;html=1;strokeColor=none;fillColor=none;align=left;verticalAlign=middle;spacingLeft=4;spacingRight=4;overflow=hidden;rotatable=0;points=[[0,0.5],[1,0.5]];portConstraint=eastwest;" value="+ setPassword(String): void" vertex="1"><mxGeometry as="geometry" height="26" width="225" y="190"/></mxCell><mxCell id="50" parent="1" style="swimlane;fontStyle=0;align=center;verticalAlign=top;childLayout=stackLayout;horizontal=1;startSize=30;horizontalStack=0;resizeParent=1;resizeParentMax=0;resizeLast=0;collapsible=0;marginBottom=0;html=1;" value="Fine" vertex="1"><mxGeometry as="geometry" height="294" width="225" x="686" y="636"/></mxCell><mxCell id="51" parent="50" style="text;html=1;strokeColor=none;fillColor=none;align=left;verticalAlign=middle;spacingLeft=4;spacingRight=4;overflow=hidden;rotatable=0;points=[[0,0.5],[1,0.5]];portConstraint=eastwest;" value="- amount : BigDecimal" vertex="1"><mxGeometry as="geometry" height="26" width="225" y="26"/></mxCell><mxCell id="52" parent="50" style="text;html=1;strokeColor=none;fillColor=none;align=left;verticalAlign=middle;spacingLeft=4;spacingRight=4;overflow=hidden;rotatable=0;points=[[0,0.5],[1,0.5]];portConstraint=eastwest;" value="- status : FineStatus" vertex="1"><mxGeometry as="geometry" height="26" width="225" y="52"/></mxCell><mxCell id="53" parent="50" style="text;html=1;strokeColor=none;fillColor=none;align=left;verticalAlign=middle;spacingLeft=4;spacingRight=4;overflow=hidden;rotatable=0;points=[[0,0.5],[1,0.5]];portConstraint=eastwest;" value="- reason : String" vertex="1"><mxGeometry as="geometry" height="26" width="225" y="78"/></mxCell><mxCell id="54" parent="50" style="text;html=1;strokeColor=none;fillColor=none;align=left;verticalAlign=middle;spacingLeft=4;spacingRight=4;overflow=hidden;rotatable=0;points=[[0,0.5],[1,0.5]];portConstraint=eastwest;" value="- createdAt : LocalDateTime" vertex="1"><mxGeometry as="geometry" height="26" width="225" y="104"/></mxCell><mxCell id="55" parent="50" style="line;strokeWidth=1;fillColor=none;align=left;verticalAlign=middle;spacingTop=-1;spacingLeft=3;spacingRight=3;rotatable=0;labelPosition=right;points=[];portConstraint=eastwest;" vertex="1"><mxGeometry as="geometry" height="8" width="225" y="130"/></mxCell><mxCell id="56" parent="50" style="text;html=1;strokeColor=none;fillColor=none;align=left;verticalAlign=middle;spacingLeft=4;spacingRight=4;overflow=hidden;rotatable=0;points=[[0,0.5],[1,0.5]];portConstraint=eastwest;" value="+ Fine(int, BigDecimal, FineStatus, String)" vertex="1"><mxGeometry as="geometry" height="26" width="225" y="138"/></mxCell><mxCell id="57" parent="50" style="text;html=1;strokeColor=none;fillColor=none;align=left;verticalAlign=middle;spacingLeft=4;spacingRight=4;overflow=hidden;rotatable=0;points=[[0,0.5],[1,0.5]];portConstraint=eastwest;" value="+ Fine(int, BigDecimal, FineStatus, String, LocalDateTime)" vertex="1"><mxGeometry as="geometry" height="26" width="225" y="164"/></mxCell><mxCell id="58" parent="50" style="text;html=1;strokeColor=none;fillColor=none;align=left;verticalAlign=middle;spacingLeft=4;spacingRight=4;overflow=hidden;rotatable=0;points=[[0,0.5],[1,0.5]];portConstraint=eastwest;" value="+ getAmount(): BigDecimal" vertex="1"><mxGeometry as="geometry" height="26" width="225" y="190"/></mxCell><mxCell id="59" parent="50" style="text;html=1;strokeColor=none;fillColor=none;align=left;verticalAlign=middle;spacingLeft=4;spacingRight=4;overflow=hidden;rotatable=0;points=[[0,0.5],[1,0.5]];portConstraint=eastwest;" value="+ getStatus(): FineStatus" vertex="1"><mxGeometry as="geometry" height="26" width="225" y="216"/></mxCell><mxCell id="60" parent="50" style="text;html=1;strokeColor=none;fillColor=none;align=left;verticalAlign=middle;spacingLeft=4;spacingRight=4;overflow=hidden;rotatable=0;points=[[0,0.5],[1,0.5]];portConstraint=eastwest;" value="+ getReason(): String" vertex="1"><mxGeometry as="geometry" height="26" width="225" y="242"/></mxCell><mxCell id="61" parent="50" style="text;html=1;strokeColor=none;fillColor=none;align=left;verticalAlign=middle;spacingLeft=4;spacingRight=4;overflow=hidden;rotatable=0;points=[[0,0.5],[1,0.5]];portConstraint=eastwest;" value="+ getCreatedAt(): LocalDateTime" vertex="1"><mxGeometry as="geometry" height="26" width="225" y="268"/></mxCell><mxCell id="62" parent="1" style="swimlane;fontStyle=0;align=center;verticalAlign=top;childLayout=stackLayout;horizontal=1;startSize=30;horizontalStack=0;resizeParent=1;resizeParentMax=0;resizeLast=0;collapsible=0;marginBottom=0;html=1;" value="GeneralEntity" vertex="1"><mxGeometry as="geometry" height="138" width="225" x="70" y="1192"/></mxCell><mxCell id="63" parent="62" style="text;html=1;strokeColor=none;fillColor=none;align=left;verticalAlign=middle;spacingLeft=4;spacingRight=4;overflow=hidden;rotatable=0;points=[[0,0.5],[1,0.5]];portConstraint=eastwest;" value="- id : int" vertex="1"><mxGeometry as="geometry" height="26" width="225" y="26"/></mxCell><mxCell id="64" parent="62" style="line;strokeWidth=1;fillColor=none;align=left;verticalAlign=middle;spacingTop=-1;spacingLeft=3;spacingRight=3;rotatable=0;labelPosition=right;points=[];portConstraint=eastwest;" vertex="1"><mxGeometry as="geometry" height="8" width="225" y="52"/></mxCell><mxCell id="65" parent="62" style="text;html=1;strokeColor=none;fillColor=none;align=left;verticalAlign=middle;spacingLeft=4;spacingRight=4;overflow=hidden;rotatable=0;points=[[0,0.5],[1,0.5]];portConstraint=eastwest;" value="+ GeneralEntity(int)" vertex="1"><mxGeometry as="geometry" height="26" width="225" y="60"/></mxCell><mxCell id="66" parent="62" style="text;html=1;strokeColor=none;fillColor=none;align=left;verticalAlign=middle;spacingLeft=4;spacingRight=4;overflow=hidden;rotatable=0;points=[[0,0.5],[1,0.5]];portConstraint=eastwest;" value="+ getId(): int" vertex="1"><mxGeometry as="geometry" height="26" width="225" y="86"/></mxCell><mxCell id="67" parent="62" style="text;html=1;strokeColor=none;fillColor=none;align=left;verticalAlign=middle;spacingLeft=4;spacingRight=4;overflow=hidden;rotatable=0;points=[[0,0.5],[1,0.5]];portConstraint=eastwest;" value="+ setId(int): void" vertex="1"><mxGeometry as="geometry" height="26" width="225" y="112"/></mxCell><mxCell id="68" parent="1" style="swimlane;fontStyle=0;align=center;verticalAlign=top;childLayout=stackLayout;horizontal=1;startSize=30;horizontalStack=0;resizeParent=1;resizeParentMax=0;resizeLast=0;collapsible=0;marginBottom=0;html=1;" value="Genre" vertex="1"><mxGeometry as="geometry" height="164" width="225" x="378" y="1192"/></mxCell><mxCell id="69" parent="68" style="text;html=1;strokeColor=none;fillColor=none;align=left;verticalAlign=middle;spacingLeft=4;spacingRight=4;overflow=hidden;rotatable=0;points=[[0,0.5],[1,0.5]];portConstraint=eastwest;" value="- name : String" vertex="1"><mxGeometry as="geometry" height="26" width="225" y="26"/></mxCell><mxCell id="70" parent="68" style="line;strokeWidth=1;fillColor=none;align=left;verticalAlign=middle;spacingTop=-1;spacingLeft=3;spacingRight=3;rotatable=0;labelPosition=right;points=[];portConstraint=eastwest;" vertex="1"><mxGeometry as="geometry" height="8" width="225" y="52"/></mxCell><mxCell id="71" parent="68" style="text;html=1;strokeColor=none;fillColor=none;align=left;verticalAlign=middle;spacingLeft=4;spacingRight=4;overflow=hidden;rotatable=0;points=[[0,0.5],[1,0.5]];portConstraint=eastwest;" value="+ Genre(int, String)" vertex="1"><mxGeometry as="geometry" height="26" width="225" y="60"/></mxCell><mxCell id="72" parent="68" style="text;html=1;strokeColor=none;fillColor=none;align=left;verticalAlign=middle;spacingLeft=4;spacingRight=4;overflow=hidden;rotatable=0;points=[[0,0.5],[1,0.5]];portConstraint=eastwest;" value="+ getName(): String" vertex="1"><mxGeometry as="geometry" height="26" width="225" y="86"/></mxCell><mxCell id="73" parent="68" style="text;html=1;strokeColor=none;fillColor=none;align=left;verticalAlign=middle;spacingLeft=4;spacingRight=4;overflow=hidden;rotatable=0;points=[[0,0.5],[1,0.5]];portConstraint=eastwest;" value="+ hashCode(): int" vertex="1"><mxGeometry as="geometry" height="26" width="225" y="112"/></mxCell><mxCell id="74" parent="68" style="text;html=1;strokeColor=none;fillColor=none;align=left;verticalAlign=middle;spacingLeft=4;spacingRight=4;overflow=hidden;rotatable=0;points=[[0,0.5],[1,0.5]];portConstraint=eastwest;" value="+ equals(Object): boolean" vertex="1"><mxGeometry as="geometry" height="26" width="225" y="138"/></mxCell><mxCell id="75" parent="1" style="swimlane;fontStyle=0;align=center;verticalAlign=top;childLayout=stackLayout;horizontal=1;startSize=30;horizontalStack=0;resizeParent=1;resizeParentMax=0;resizeLast=0;collapsible=0;marginBottom=0;html=1;" value="Language" vertex="1"><mxGeometry as="geometry" height="164" width="225" x="686" y="1192"/></mxCell><mxCell id="76" parent="75" style="text;html=1;strokeColor=none;fillColor=none;align=left;verticalAlign=middle;spacingLeft=4;spacingRight=4;overflow=hidden;rotatable=0;points=[[0,0.5],[1,0.5]];portConstraint=eastwest;" value="- name : String" vertex="1"><mxGeometry as="geometry" height="26" width="225" y="26"/></mxCell><mxCell id="77" parent="75" style="line;strokeWidth=1;fillColor=none;align=left;verticalAlign=middle;spacingTop=-1;spacingLeft=3;spacingRight=3;rotatable=0;labelPosition=right;points=[];portConstraint=eastwest;" vertex="1"><mxGeometry as="geometry" height="8" width="225" y="52"/></mxCell><mxCell id="78" parent="75" style="text;html=1;strokeColor=none;fillColor=none;align=left;verticalAlign=middle;spacingLeft=4;spacingRight=4;overflow=hidden;rotatable=0;points=[[0,0.5],[1,0.5]];portConstraint=eastwest;" value="+ Language(int, String)" vertex="1"><mxGeometry as="geometry" height="26" width="225" y="60"/></mxCell><mxCell id="79" parent="75" style="text;html=1;strokeColor=none;fillColor=none;align=left;verticalAlign=middle;spacingLeft=4;spacingRight=4;overflow=hidden;rotatable=0;points=[[0,0.5],[1,0.5]];portConstraint=eastwest;" value="+ getName(): String" vertex="1"><mxGeometry as="geometry" height="26" width="225" y="86"/></mxCell><mxCell id="80" parent="75" style="text;html=1;strokeColor=none;fillColor=none;align=left;verticalAlign=middle;spacingLeft=4;spacingRight=4;overflow=hidden;rotatable=0;points=[[0,0.5],[1,0.5]];portConstraint=eastwest;" value="+ hashCode(): int" vertex="1"><mxGeometry as="geometry" height="26" width="225" y="112"/></mxCell><mxCell id="81" parent="75" style="text;html=1;strokeColor=none;fillColor=none;align=left;verticalAlign=middle;spacingLeft=4;spacingRight=4;overflow=hidden;rotatable=0;points=[[0,0.5],[1,0.5]];portConstraint=eastwest;" value="+ equals(Object): boolean" vertex="1"><mxGeometry as="geometry" height="26" width="225" y="138"/></mxCell><mxCell id="82" parent="1" style="swimlane;fontStyle=0;align=center;verticalAlign=top;childLayout=stackLayout;horizontal=1;startSize=30;horizontalStack=0;resizeParent=1;resizeParentMax=0;resizeLast=0;collapsible=0;marginBottom=0;html=1;" value="LibraryItem" vertex="1"><mxGeometry as="geometry" height="476" width="225" x="70" y="1748"/></mxCell><mxCell id="83" parent="82" style="text;html=1;strokeColor=none;fillColor=none;align=left;verticalAlign=middle;spacingLeft=4;spacingRight=4;overflow=hidden;rotatable=0;points=[[0,0.5],[1,0.5]];portConstraint=eastwest;" value="- title : String" vertex="1"><mxGeometry as="geometry" height="26" width="225" y="26"/></mxCell><mxCell id="84" parent="82" style="text;html=1;strokeColor=none;fillColor=none;align=left;verticalAlign=middle;spacingLeft=4;spacingRight=4;overflow=hidden;rotatable=0;points=[[0,0.5],[1,0.5]];portConstraint=eastwest;" value="- availableCopies : int" vertex="1"><mxGeometry as="geometry" height="26" width="225" y="52"/></mxCell><mxCell id="85" parent="82" style="text;html=1;strokeColor=none;fillColor=none;align=left;verticalAlign=middle;spacingLeft=4;spacingRight=4;overflow=hidden;rotatable=0;points=[[0,0.5],[1,0.5]];portConstraint=eastwest;" value="- isBorrowable : boolean" vertex="1"><mxGeometry as="geometry" height="26" width="225" y="78"/></mxCell><mxCell id="86" parent="82" style="text;html=1;strokeColor=none;fillColor=none;align=left;verticalAlign=middle;spacingLeft=4;spacingRight=4;overflow=hidden;rotatable=0;points=[[0,0.5],[1,0.5]];portConstraint=eastwest;" value="- genre : Genre" vertex="1"><mxGeometry as="geometry" height="26" width="225" y="104"/></mxCell><mxCell id="87" parent="82" style="text;html=1;strokeColor=none;fillColor=none;align=left;verticalAlign=middle;spacingLeft=4;spacingRight=4;overflow=hidden;rotatable=0;points=[[0,0.5],[1,0.5]];portConstraint=eastwest;" value="- language : Language" vertex="1"><mxGeometry as="geometry" height="26" width="225" y="130"/></mxCell><mxCell id="88" parent="82" style="text;html=1;strokeColor=none;fillColor=none;align=left;verticalAlign=middle;spacingLeft=4;spacingRight=4;overflow=hidden;rotatable=0;points=[[0,0.5],[1,0.5]];portConstraint=eastwest;" value="- createdAt : LocalDateTime" vertex="1"><mxGeometry as="geometry" height="26" width="225" y="156"/></mxCell><mxCell id="89" parent="82" style="text;html=1;strokeColor=none;fillColor=none;align=left;verticalAlign=middle;spacingLeft=4;spacingRight=4;overflow=hidden;rotatable=0;points=[[0,0.5],[1,0.5]];portConstraint=eastwest;" value="- updatedAt : LocalDateTime" vertex="1"><mxGeometry as="geometry" height="26" width="225" y="182"/></mxCell><mxCell id="90" parent="82" style="line;strokeWidth=1;fillColor=none;align=left;verticalAlign=middle;spacingTop=-1;spacingLeft=3;spacingRight=3;rotatable=0;labelPosition=right;points=[];portConstraint=eastwest;" vertex="1"><mxGeometry as="geometry" height="8" width="225" y="208"/></mxCell><mxCell id="91" parent="82" style="text;html=1;strokeColor=none;fillColor=none;align=left;verticalAlign=middle;spacingLeft=4;spacingRight=4;overflow=hidden;rotatable=0;points=[[0,0.5],[1,0.5]];portConstraint=eastwest;" value="+ LibraryItem(int, String, int, boolean, Genre, Language)" vertex="1"><mxGeometry as="geometry" height="26" width="225" y="216"/></mxCell><mxCell id="92" parent="82" style="text;html=1;strokeColor=none;fillColor=none;align=left;verticalAlign=middle;spacingLeft=4;spacingRight=4;overflow=hidden;rotatable=0;points=[[0,0.5],[1,0.5]];portConstraint=eastwest;" value="+ LibraryItem(int, String, int, boolean, Genre, Language, LocalDateTime, LocalDateTime)" vertex="1"><mxGeometry as="geometry" height="26" width="225" y="242"/></mxCell><mxCell id="93" parent="82" style="text;html=1;strokeColor=none;fillColor=none;align=left;verticalAlign=middle;spacingLeft=4;spacingRight=4;overflow=hidden;rotatable=0;points=[[0,0.5],[1,0.5]];portConstraint=eastwest;" value="+ getTitle(): String" vertex="1"><mxGeometry as="geometry" height="26" width="225" y="268"/></mxCell><mxCell id="94" parent="82" style="text;html=1;strokeColor=none;fillColor=none;align=left;verticalAlign=middle;spacingLeft=4;spacingRight=4;overflow=hidden;rotatable=0;points=[[0,0.5],[1,0.5]];portConstraint=eastwest;" value="+ getAvailableCopies(): int" vertex="1"><mxGeometry as="geometry" height="26" width="225" y="294"/></mxCell><mxCell id="95" parent="82" style="text;html=1;strokeColor=none;fillColor=none;align=left;verticalAlign=middle;spacingLeft=4;spacingRight=4;overflow=hidden;rotatable=0;points=[[0,0.5],[1,0.5]];portConstraint=eastwest;" value="+ isBorrowable(): boolean" vertex="1"><mxGeometry as="geometry" height="26" width="225" y="320"/></mxCell><mxCell id="96" parent="82" style="text;html=1;strokeColor=none;fillColor=none;align=left;verticalAlign=middle;spacingLeft=4;spacingRight=4;overflow=hidden;rotatable=0;points=[[0,0.5],[1,0.5]];portConstraint=eastwest;" value="+ getGenre(): Genre" vertex="1"><mxGeometry as="geometry" height="26" width="225" y="346"/></mxCell><mxCell id="97" parent="82" style="text;html=1;strokeColor=none;fillColor=none;align=left;verticalAlign=middle;spacingLeft=4;spacingRight=4;overflow=hidden;rotatable=0;points=[[0,0.5],[1,0.5]];portConstraint=eastwest;" value="+ getLanguage(): Language" vertex="1"><mxGeometry as="geometry" height="26" width="225" y="372"/></mxCell><mxCell id="98" parent="82" style="text;html=1;strokeColor=none;fillColor=none;align=left;verticalAlign=middle;spacingLeft=4;spacingRight=4;overflow=hidden;rotatable=0;points=[[0,0.5],[1,0.5]];portConstraint=eastwest;" value="+ getCreatedAt(): LocalDateTime" vertex="1"><mxGeometry as="geometry" height="26" width="225" y="398"/></mxCell><mxCell id="99" parent="82" style="text;html=1;strokeColor=none;fillColor=none;align=left;verticalAlign=middle;spacingLeft=4;spacingRight=4;overflow=hidden;rotatable=0;points=[[0,0.5],[1,0.5]];portConstraint=eastwest;" value="+ getUpdatedAt(): LocalDateTime" vertex="1"><mxGeometry as="geometry" height="26" width="225" y="424"/></mxCell><mxCell id="100" parent="82" style="text;html=1;strokeColor=none;fillColor=none;align=left;verticalAlign=middle;spacingLeft=4;spacingRight=4;overflow=hidden;rotatable=0;points=[[0,0.5],[1,0.5]];portConstraint=eastwest;" value="+ setAvailableCopies(int): void" vertex="1"><mxGeometry as="geometry" height="26" width="225" y="450"/></mxCell><mxCell id="101" parent="1" style="swimlane;fontStyle=0;align=center;verticalAlign=top;childLayout=stackLayout;horizontal=1;startSize=30;horizontalStack=0;resizeParent=1;resizeParentMax=0;resizeLast=0;collapsible=0;marginBottom=0;html=1;" value="Magazine" vertex="1"><mxGeometry as="geometry" height="86" width="225" x="378" y="1748"/></mxCell><mxCell id="102" parent="101" style="line;strokeWidth=1;fillColor=none;align=left;verticalAlign=middle;spacingTop=-1;spacingLeft=3;spacingRight=3;rotatable=0;labelPosition=right;points=[];portConstraint=eastwest;" vertex="1"><mxGeometry as="geometry" height="8" width="225" y="26"/></mxCell><mxCell id="103" parent="101" style="text;html=1;strokeColor=none;fillColor=none;align=left;verticalAlign=middle;spacingLeft=4;spacingRight=4;overflow=hidden;rotatable=0;points=[[0,0.5],[1,0.5]];portConstraint=eastwest;" value="+ Magazine(int, String, int, boolean, Genre, Language)" vertex="1"><mxGeometry as="geometry" height="26" width="225" y="34"/></mxCell><mxCell id="104" parent="101" style="text;html=1;strokeColor=none;fillColor=none;align=left;verticalAlign=middle;spacingLeft=4;spacingRight=4;overflow=hidden;rotatable=0;points=[[0,0.5],[1,0.5]];portConstraint=eastwest;" value="+ Magazine(int, String, int, boolean, Genre, Language, LocalDateTime, LocalDateTime)" vertex="1"><mxGeometry as="geometry" height="26" width="225" y="60"/></mxCell><mxCell id="105" parent="1" style="swimlane;fontStyle=0;align=center;verticalAlign=top;childLayout=stackLayout;horizontal=1;startSize=30;horizontalStack=0;resizeParent=1;resizeParentMax=0;resizeLast=0;collapsible=0;marginBottom=0;html=1;" value="MagazineBorrow" vertex="1"><mxGeometry as="geometry" height="138" width="225" x="686" y="1748"/></mxCell><mxCell id="106" parent="105" style="text;html=1;strokeColor=none;fillColor=none;align=left;verticalAlign=middle;spacingLeft=4;spacingRight=4;overflow=hidden;rotatable=0;points=[[0,0.5],[1,0.5]];portConstraint=eastwest;" value="- magazine : Magazine" vertex="1"><mxGeometry as="geometry" height="26" width="225" y="26"/></mxCell><mxCell id="107" parent="105" style="line;strokeWidth=1;fillColor=none;align=left;verticalAlign=middle;spacingTop=-1;spacingLeft=3;spacingRight=3;rotatable=0;labelPosition=right;points=[];portConstraint=eastwest;" vertex="1"><mxGeometry as="geometry" height="8" width="225" y="52"/></mxCell><mxCell id="108" parent="105" style="text;html=1;strokeColor=none;fillColor=none;align=left;verticalAlign=middle;spacingLeft=4;spacingRight=4;overflow=hidden;rotatable=0;points=[[0,0.5],[1,0.5]];portConstraint=eastwest;" value="+ MagazineBorrow(int, LocalDateTime, Status, Magazine, Staff)" vertex="1"><mxGeometry as="geometry" height="26" width="225" y="60"/></mxCell><mxCell id="109" parent="105" style="text;html=1;strokeColor=none;fillColor=none;align=left;verticalAlign=middle;spacingLeft=4;spacingRight=4;overflow=hidden;rotatable=0;points=[[0,0.5],[1,0.5]];portConstraint=eastwest;" value="+ MagazineBorrow(int, LocalDateTime, Status, Magazine, Staff, LocalDateTime, LocalDateTime)" vertex="1"><mxGeometry as="geometry" height="26" width="225" y="86"/></mxCell><mxCell id="110" parent="105" style="text;html=1;strokeColor=none;fillColor=none;align=left;verticalAlign=middle;spacingLeft=4;spacingRight=4;overflow=hidden;rotatable=0;points=[[0,0.5],[1,0.5]];portConstraint=eastwest;" value="+ getMagazine(): Magazine" vertex="1"><mxGeometry as="geometry" height="26" width="225" y="112"/></mxCell><mxCell id="111" parent="1" style="swimlane;fontStyle=0;align=center;verticalAlign=top;childLayout=stackLayout;horizontal=1;startSize=30;horizontalStack=0;resizeParent=1;resizeParentMax=0;resizeLast=0;collapsible=0;marginBottom=0;html=1;" value="MagazineFine" vertex="1"><mxGeometry as="geometry" height="138" width="225" x="70" y="2304"/></mxCell><mxCell id="112" parent="111" style="text;html=1;strokeColor=none;fillColor=none;align=left;verticalAlign=middle;spacingLeft=4;spacingRight=4;overflow=hidden;rotatable=0;points=[[0,0.5],[1,0.5]];portConstraint=eastwest;" value="- userMagazineBorrowId : int" vertex="1"><mxGeometry as="geometry" height="26" width="225" y="26"/></mxCell><mxCell id="113" parent="111" style="line;strokeWidth=1;fillColor=none;align=left;verticalAlign=middle;spacingTop=-1;spacingLeft=3;spacingRight=3;rotatable=0;labelPosition=right;points=[];portConstraint=eastwest;" vertex="1"><mxGeometry as="geometry" height="8" width="225" y="52"/></mxCell><mxCell id="114" parent="111" style="text;html=1;strokeColor=none;fillColor=none;align=left;verticalAlign=middle;spacingLeft=4;spacingRight=4;overflow=hidden;rotatable=0;points=[[0,0.5],[1,0.5]];portConstraint=eastwest;" value="+ MagazineFine(int, BigDecimal, FineStatus, String, int)" vertex="1"><mxGeometry as="geometry" height="26" width="225" y="60"/></mxCell><mxCell id="115" parent="111" style="text;html=1;strokeColor=none;fillColor=none;align=left;verticalAlign=middle;spacingLeft=4;spacingRight=4;overflow=hidden;rotatable=0;points=[[0,0.5],[1,0.5]];portConstraint=eastwest;" value="+ MagazineFine(int, BigDecimal, FineStatus, String, int, LocalDateTime)" vertex="1"><mxGeometry as="geometry" height="26" width="225" y="86"/></mxCell><mxCell id="116" parent="111" style="text;html=1;strokeColor=none;fillColor=none;align=left;verticalAlign=middle;spacingLeft=4;spacingRight=4;overflow=hidden;rotatable=0;points=[[0,0.5],[1,0.5]];portConstraint=eastwest;" value="+ getUserMagazineBorrowId(): int" vertex="1"><mxGeometry as="geometry" height="26" width="225" y="112"/></mxCell><mxCell id="117" parent="1" style="swimlane;fontStyle=0;align=center;verticalAlign=top;childLayout=stackLayout;horizontal=1;startSize=30;horizontalStack=0;resizeParent=1;resizeParentMax=0;resizeLast=0;collapsible=0;marginBottom=0;html=1;" value="Person" vertex="1"><mxGeometry as="geometry" height="34" width="225" x="378" y="2304"/></mxCell><mxCell id="118" parent="117" style="line;strokeWidth=1;fillColor=none;align=left;verticalAlign=middle;spacingTop=-1;spacingLeft=3;spacingRight=3;rotatable=0;labelPosition=right;points=[];portConstraint=eastwest;" vertex="1"><mxGeometry as="geometry" height="8" width="225" y="26"/></mxCell><mxCell id="119" parent="1" style="swimlane;fontStyle=0;align=center;verticalAlign=top;childLayout=stackLayout;horizontal=1;startSize=30;horizontalStack=0;resizeParent=1;resizeParentMax=0;resizeLast=0;collapsible=0;marginBottom=0;html=1;" value="Staff" vertex="1"><mxGeometry as="geometry" height="34" width="225" x="686" y="2304"/></mxCell><mxCell id="120" parent="119" style="line;strokeWidth=1;fillColor=none;align=left;verticalAlign=middle;spacingTop=-1;spacingLeft=3;spacingRight=3;rotatable=0;labelPosition=right;points=[];portConstraint=eastwest;" vertex="1"><mxGeometry as="geometry" height="8" width="225" y="26"/></mxCell><mxCell id="121" parent="1" style="swimlane;fontStyle=0;align=center;verticalAlign=top;childLayout=stackLayout;horizontal=1;startSize=30;horizontalStack=0;resizeParent=1;resizeParentMax=0;resizeLast=0;collapsible=0;marginBottom=0;html=1;" value="User" vertex="1"><mxGeometry as="geometry" height="34" width="225" x="70" y="2860"/></mxCell><mxCell id="122" parent="121" style="line;strokeWidth=1;fillColor=none;align=left;verticalAlign=middle;spacingTop=-1;spacingLeft=3;spacingRight=3;rotatable=0;labelPosition=right;points=[];portConstraint=eastwest;" vertex="1"><mxGeometry as="geometry" height="8" width="225" y="26"/></mxCell><mxCell id="123" parent="1" style="swimlane;fontStyle=0;align=center;verticalAlign=top;childLayout=stackLayout;horizontal=1;startSize=30;horizontalStack=0;resizeParent=1;resizeParentMax=0;resizeLast=0;collapsible=0;marginBottom=0;html=1;" value="UserActivityLog" vertex="1"><mxGeometry as="geometry" height="372" width="225" x="378" y="2860"/></mxCell><mxCell id="124" parent="123" style="text;html=1;strokeColor=none;fillColor=none;align=left;verticalAlign=middle;spacingLeft=4;spacingRight=4;overflow=hidden;rotatable=0;points=[[0,0.5],[1,0.5]];portConstraint=eastwest;" value="- user : User" vertex="1"><mxGeometry as="geometry" height="26" width="225" y="26"/></mxCell><mxCell id="125" parent="123" style="text;html=1;strokeColor=none;fillColor=none;align=left;verticalAlign=middle;spacingLeft=4;spacingRight=4;overflow=hidden;rotatable=0;points=[[0,0.5],[1,0.5]];portConstraint=eastwest;" value="- action : Action" vertex="1"><mxGeometry as="geometry" height="26" width="225" y="52"/></mxCell><mxCell id="126" parent="123" style="text;html=1;strokeColor=none;fillColor=none;align=left;verticalAlign=middle;spacingLeft=4;spacingRight=4;overflow=hidden;rotatable=0;points=[[0,0.5],[1,0.5]];portConstraint=eastwest;" value="- referenceId : int" vertex="1"><mxGeometry as="geometry" height="26" width="225" y="78"/></mxCell><mxCell id="127" parent="123" style="text;html=1;strokeColor=none;fillColor=none;align=left;verticalAlign=middle;spacingLeft=4;spacingRight=4;overflow=hidden;rotatable=0;points=[[0,0.5],[1,0.5]];portConstraint=eastwest;" value="- referenceType : ReferenceType" vertex="1"><mxGeometry as="geometry" height="26" width="225" y="104"/></mxCell><mxCell id="128" parent="123" style="text;html=1;strokeColor=none;fillColor=none;align=left;verticalAlign=middle;spacingLeft=4;spacingRight=4;overflow=hidden;rotatable=0;points=[[0,0.5],[1,0.5]];portConstraint=eastwest;" value="- date : LocalDateTime" vertex="1"><mxGeometry as="geometry" height="26" width="225" y="130"/></mxCell><mxCell id="129" parent="123" style="text;html=1;strokeColor=none;fillColor=none;align=left;verticalAlign=middle;spacingLeft=4;spacingRight=4;overflow=hidden;rotatable=0;points=[[0,0.5],[1,0.5]];portConstraint=eastwest;" value="- details : String" vertex="1"><mxGeometry as="geometry" height="26" width="225" y="156"/></mxCell><mxCell id="130" parent="123" style="line;strokeWidth=1;fillColor=none;align=left;verticalAlign=middle;spacingTop=-1;spacingLeft=3;spacingRight=3;rotatable=0;labelPosition=right;points=[];portConstraint=eastwest;" vertex="1"><mxGeometry as="geometry" height="8" width="225" y="182"/></mxCell><mxCell id="131" parent="123" style="text;html=1;strokeColor=none;fillColor=none;align=left;verticalAlign=middle;spacingLeft=4;spacingRight=4;overflow=hidden;rotatable=0;points=[[0,0.5],[1,0.5]];portConstraint=eastwest;" value="+ UserActivityLog(int, User, Action, int, ReferenceType, LocalDateTime, String)" vertex="1"><mxGeometry as="geometry" height="26" width="225" y="190"/></mxCell><mxCell id="132" parent="123" style="text;html=1;strokeColor=none;fillColor=none;align=left;verticalAlign=middle;spacingLeft=4;spacingRight=4;overflow=hidden;rotatable=0;points=[[0,0.5],[1,0.5]];portConstraint=eastwest;" value="+ getUser(): User" vertex="1"><mxGeometry as="geometry" height="26" width="225" y="216"/></mxCell><mxCell id="133" parent="123" style="text;html=1;strokeColor=none;fillColor=none;align=left;verticalAlign=middle;spacingLeft=4;spacingRight=4;overflow=hidden;rotatable=0;points=[[0,0.5],[1,0.5]];portConstraint=eastwest;" value="+ getAction(): Action" vertex="1"><mxGeometry as="geometry" height="26" width="225" y="242"/></mxCell><mxCell id="134" parent="123" style="text;html=1;strokeColor=none;fillColor=none;align=left;verticalAlign=middle;spacingLeft=4;spacingRight=4;overflow=hidden;rotatable=0;points=[[0,0.5],[1,0.5]];portConstraint=eastwest;" value="+ getReferenceId(): int" vertex="1"><mxGeometry as="geometry" height="26" width="225" y="268"/></mxCell><mxCell id="135" parent="123" style="text;html=1;strokeColor=none;fillColor=none;align=left;verticalAlign=middle;spacingLeft=4;spacingRight=4;overflow=hidden;rotatable=0;points=[[0,0.5],[1,0.5]];portConstraint=eastwest;" value="+ getReferenceType(): ReferenceType" vertex="1"><mxGeometry as="geometry" height="26" width="225" y="294"/></mxCell><mxCell id="136" parent="123" style="text;html=1;strokeColor=none;fillColor=none;align=left;verticalAlign=middle;spacingLeft=4;spacingRight=4;overflow=hidden;rotatable=0;points=[[0,0.5],[1,0.5]];portConstraint=eastwest;" value="+ getDate(): LocalDateTime" vertex="1"><mxGeometry as="geometry" height="26" width="225" y="320"/></mxCell><mxCell id="137" parent="123" style="text;html=1;strokeColor=none;fillColor=none;align=left;verticalAlign=middle;spacingLeft=4;spacingRight=4;overflow=hidden;rotatable=0;points=[[0,0.5],[1,0.5]];portConstraint=eastwest;" value="+ getDetails(): String" vertex="1"><mxGeometry as="geometry" height="26" width="225" y="346"/></mxCell><mxCell id="138" parent="1" style="swimlane;fontStyle=0;align=center;verticalAlign=top;childLayout=stackLayout;horizontal=1;startSize=30;horizontalStack=0;resizeParent=1;resizeParentMax=0;resizeLast=0;collapsible=0;marginBottom=0;html=1;" value="UserBookBorrow" vertex="1"><mxGeometry as="geometry" height="86" width="225" x="686" y="2860"/></mxCell><mxCell id="139" parent="138" style="line;strokeWidth=1;fillColor=none;align=left;verticalAlign=middle;spacingTop=-1;spacingLeft=3;spacingRight=3;rotatable=0;labelPosition=right;points=[];portConstraint=eastwest;" vertex="1"><mxGeometry as="geometry" height="8" width="225" y="26"/></mxCell><mxCell id="140" parent="138" style="text;html=1;strokeColor=none;fillColor=none;align=left;verticalAlign=middle;spacingLeft=4;spacingRight=4;overflow=hidden;rotatable=0;points=[[0,0.5],[1,0.5]];portConstraint=eastwest;" value="+ UserBookBorrow(int, User, BookBorrow)" vertex="1"><mxGeometry as="geometry" height="26" width="225" y="34"/></mxCell><mxCell id="141" parent="138" style="text;html=1;strokeColor=none;fillColor=none;align=left;verticalAlign=middle;spacingLeft=4;spacingRight=4;overflow=hidden;rotatable=0;points=[[0,0.5],[1,0.5]];portConstraint=eastwest;" value="+ getBorrow(): BookBorrow" vertex="1"><mxGeometry as="geometry" height="26" width="225" y="60"/></mxCell><mxCell id="142" parent="1" style="swimlane;fontStyle=0;align=center;verticalAlign=top;childLayout=stackLayout;horizontal=1;startSize=30;horizontalStack=0;resizeParent=1;resizeParentMax=0;resizeLast=0;collapsible=0;marginBottom=0;html=1;" value="UserBorrow" vertex="1"><mxGeometry as="geometry" height="164" width="225" x="70" y="3416"/></mxCell><mxCell id="143" parent="142" style="text;html=1;strokeColor=none;fillColor=none;align=left;verticalAlign=middle;spacingLeft=4;spacingRight=4;overflow=hidden;rotatable=0;points=[[0,0.5],[1,0.5]];portConstraint=eastwest;" value="- user : User" vertex="1"><mxGeometry as="geometry" height="26" width="225" y="26"/></mxCell><mxCell id="144" parent="142" style="text;html=1;strokeColor=none;fillColor=none;align=left;verticalAlign=middle;spacingLeft=4;spacingRight=4;overflow=hidden;rotatable=0;points=[[0,0.5],[1,0.5]];portConstraint=eastwest;" value="- borrow : Borrow" vertex="1"><mxGeometry as="geometry" height="26" width="225" y="52"/></mxCell><mxCell id="145" parent="142" style="line;strokeWidth=1;fillColor=none;align=left;verticalAlign=middle;spacingTop=-1;spacingLeft=3;spacingRight=3;rotatable=0;labelPosition=right;points=[];portConstraint=eastwest;" vertex="1"><mxGeometry as="geometry" height="8" width="225" y="78"/></mxCell><mxCell id="146" parent="142" style="text;html=1;strokeColor=none;fillColor=none;align=left;verticalAlign=middle;spacingLeft=4;spacingRight=4;overflow=hidden;rotatable=0;points=[[0,0.5],[1,0.5]];portConstraint=eastwest;" value="+ UserBorrow(int, User, Borrow)" vertex="1"><mxGeometry as="geometry" height="26" width="225" y="86"/></mxCell><mxCell id="147" parent="142" style="text;html=1;strokeColor=none;fillColor=none;align=left;verticalAlign=middle;spacingLeft=4;spacingRight=4;overflow=hidden;rotatable=0;points=[[0,0.5],[1,0.5]];portConstraint=eastwest;" value="+ getUser(): User" vertex="1"><mxGeometry as="geometry" height="26" width="225" y="112"/></mxCell><mxCell id="148" parent="142" style="text;html=1;strokeColor=none;fillColor=none;align=left;verticalAlign=middle;spacingLeft=4;spacingRight=4;overflow=hidden;rotatable=0;points=[[0,0.5],[1,0.5]];portConstraint=eastwest;" value="+ getBorrow(): Borrow" vertex="1"><mxGeometry as="geometry" height="26" width="225" y="138"/></mxCell><mxCell id="149" parent="1" style="swimlane;fontStyle=0;align=center;verticalAlign=top;childLayout=stackLayout;horizontal=1;startSize=30;horizontalStack=0;resizeParent=1;resizeParentMax=0;resizeLast=0;collapsible=0;marginBottom=0;html=1;" value="UserMagazineBorrow" vertex="1"><mxGeometry as="geometry" height="86" width="225" x="378" y="3416"/></mxCell><mxCell id="150" parent="149" style="line;strokeWidth=1;fillColor=none;align=left;verticalAlign=middle;spacingTop=-1;spacingLeft=3;spacingRight=3;rotatable=0;labelPosition=right;points=[];portConstraint=eastwest;" vertex="1"><mxGeometry as="geometry" height="8" width="225" y="26"/></mxCell><mxCell id="151" parent="149" style="text;html=1;strokeColor=none;fillColor=none;align=left;verticalAlign=middle;spacingLeft=4;spacingRight=4;overflow=hidden;rotatable=0;points=[[0,0.5],[1,0.5]];portConstraint=eastwest;" value="+ UserMagazineBorrow(int, User, MagazineBorrow)" vertex="1"><mxGeometry as="geometry" height="26" width="225" y="34"/></mxCell><mxCell id="152" parent="149" style="text;html=1;strokeColor=none;fillColor=none;align=left;verticalAlign=middle;spacingLeft=4;spacingRight=4;overflow=hidden;rotatable=0;points=[[0,0.5],[1,0.5]];portConstraint=eastwest;" value="+ getBorrow(): MagazineBorrow" vertex="1"><mxGeometry as="geometry" height="26" width="225" y="60"/></mxCell><mxCell edge="1" id="153" parent="1" source="2" style="endArrow=block;endSize=16;endFill=0;html=1" target="82" value="Extends"><mxGeometry as="geometry" relative="1" width="160"/></mxCell><mxCell edge="1" id="154" parent="1" source="15" style="endArrow=block;endSize=16;endFill=0;html=1" target="27" value="Extends"><mxGeometry as="geometry" relative="1" width="160"/></mxCell><mxCell edge="1" id="155" parent="1" source="21" style="endArrow=block;endSize=16;endFill=0;html=1" target="50" value="Extends"><mxGeometry as="geometry" relative="1" width="160"/></mxCell><mxCell edge="1" id="156" parent="1" source="27" style="endArrow=block;endSize=16;endFill=0;html=1" target="62" value="Extends"><mxGeometry as="geometry" relative="1" width="160"/></mxCell><mxCell edge="1" id="157" parent="1" source="50" style="endArrow=block;endSize=16;endFill=0;html=1" target="62" value="Extends"><mxGeometry as="geometry" relative="1" width="160"/></mxCell><mxCell edge="1" id="158" parent="1" source="68" style="endArrow=block;endSize=16;endFill=0;html=1" target="62" value="Extends"><mxGeometry as="geometry" relative="1" width="160"/></mxCell><mxCell edge="1" id="159" parent="1" source="75" style="endArrow=block;endSize=16;endFill=0;html=1" target="62" value="Extends"><mxGeometry as="geometry" relative="1" width="160"/></mxCell><mxCell edge="1" id="160" parent="1" source="82" style="endArrow=block;endSize=16;endFill=0;html=1" target="62" value="Extends"><mxGeometry as="geometry" relative="1" width="160"/></mxCell><mxCell edge="1" id="161" parent="1" source="101" style="endArrow=block;endSize=16;endFill=0;html=1" target="82" value="Extends"><mxGeometry as="geometry" relative="1" width="160"/></mxCell><mxCell edge="1" id="162" parent="1" source="105" style="endArrow=block;endSize=16;endFill=0;html=1" target="27" value="Extends"><mxGeometry as="geometry" relative="1" width="160"/></mxCell><mxCell edge="1" id="163" parent="1" source="111" style="endArrow=block;endSize=16;endFill=0;html=1" target="50" value="Extends"><mxGeometry as="geometry" relative="1" width="160"/></mxCell><mxCell edge="1" id="164" parent="1" source="117" style="endArrow=block;endSize=16;endFill=0;html=1" target="62" value="Extends"><mxGeometry as="geometry" relative="1" width="160"/></mxCell><mxCell edge="1" id="165" parent="1" source="119" style="endArrow=block;endSize=16;endFill=0;html=1" target="117" value="Extends"><mxGeometry as="geometry" relative="1" width="160"/></mxCell><mxCell edge="1" id="166" parent="1" source="121" style="endArrow=block;endSize=16;endFill=0;html=1" target="117" value="Extends"><mxGeometry as="geometry" relative="1" width="160"/></mxCell><mxCell edge="1" id="167" parent="1" source="123" style="endArrow=block;endSize=16;endFill=0;html=1" target="62" value="Extends"><mxGeometry as="geometry" relative="1" width="160"/></mxCell><mxCell edge="1" id="168" parent="1" source="138" style="endArrow=block;endSize=16;endFill=0;html=1" target="27" value="Extends"><mxGeometry as="geometry" relative="1" width="160"/></mxCell><mxCell edge="1" id="169" parent="1" source="142" style="endArrow=block;endSize=16;endFill=0;html=1" target="62" value="Extends"><mxGeometry as="geometry" relative="1" width="160"/></mxCell><mxCell edge="1" id="170" parent="1" source="149" style="endArrow=block;endSize=16;endFill=0;html=1" target="27" value="Extends"><mxGeometry as="geometry" relative="1" width="160"/></mxCell></root></mxGraphModel></diagram>